<?xml version="1.0" standalone="no"?>
<!DOCTYPE svg PUBLIC "-//W3C//DTD SVG 20010904//EN"
 "http://www.w3.org/TR/2001/REC-SVG-20010904/DTD/svg10.dtd">
<svg version="1.0" xmlns="http://www.w3.org/2000/svg"
 width="398.000000pt" height="398.000000pt" viewBox="0 0 398.000000 398.000000"
 preserveAspectRatio="xMidYMid meet">
<metadata>
Created by potrace 1.14, written by Peter Selinger 2001-2017
</metadata>
<g transform="translate(0.000000,398.000000) scale(0.100000,-0.100000)"
fill="#000000" stroke="none">
<path d="M14 3068 c5 -1086 5 -778 0 -2025 l-4 -1043 1980 0 1980 0 0 1990 0
1990 -1980 0 -1980 0 4 -912z m2576 -644 c0 -98 3 -129 15 -140 13 -14 17 -14
30 0 8 8 15 22 15 30 0 9 5 16 10 16 6 0 10 -4 10 -10 0 -5 5 -10 10 -10 6 0
10 9 10 20 0 17 7 20 50 20 28 0 50 -4 50 -10 0 -5 9 -10 20 -10 11 0 20 -4
20 -10 0 -5 7 -10 16 -10 20 0 44 -24 44 -44 0 -9 5 -16 10 -16 6 0 10 -9 10
-20 0 -11 5 -20 10 -20 6 0 10 -73 10 -200 l0 -200 -90 0 c-53 0 -90 4 -90 10
0 6 5 10 10 10 6 0 10 60 10 160 0 153 -1 160 -20 160 -13 0 -20 7 -20 20 0
17 -7 20 -45 20 -35 0 -52 -6 -70 -25 -25 -24 -25 -27 -25 -190 l0 -165 -90 0
-90 0 0 370 0 370 90 0 90 0 0 -126z m-400 56 c0 -5 9 -10 20 -10 11 0 20 -4
20 -10 0 -5 7 -10 15 -10 20 0 65 -45 65 -65 0 -8 5 -15 10 -15 6 0 10 -33 10
-80 0 -47 -4 -80 -10 -80 -5 0 -10 -7 -10 -15 0 -9 -20 -36 -45 -60 -24 -25
-51 -45 -60 -45 -8 0 -15 -4 -15 -10 0 -5 -8 -10 -18 -10 -10 0 -24 -9 -32
-20 -8 -11 -22 -20 -32 -20 -10 0 -18 -4 -18 -10 0 -5 -9 -10 -20 -10 -11 0
-20 -4 -20 -10 0 -6 52 -10 136 -10 104 0 139 -3 150 -14 10 -10 14 -38 14
-90 l0 -76 -260 0 -260 0 0 90 c0 82 2 90 19 90 11 0 22 6 25 13 5 10 7 10 12
0 8 -18 24 -16 24 3 0 22 32 53 38 36 5 -17 22 -15 22 3 0 18 44 65 60 65 6 0
35 25 65 55 53 53 55 56 55 110 0 48 -2 55 -20 55 -11 0 -20 5 -20 10 0 6 -11
10 -25 10 -29 0 -75 -40 -75 -65 0 -8 -4 -15 -10 -15 -5 0 -10 -9 -10 -20 0
-17 -7 -20 -40 -20 -22 0 -40 5 -40 10 0 6 -13 10 -30 10 -16 0 -30 5 -30 10
0 6 -9 10 -20 10 -11 0 -20 5 -20 10 0 6 5 10 10 10 6 0 10 13 10 28 0 16 8
34 20 42 11 8 20 20 20 28 0 18 45 62 64 62 8 0 17 6 20 13 5 10 7 10 12 0 9
-20 24 -15 24 7 0 19 7 20 100 20 60 0 100 -4 100 -10z m-620 -140 c0 -5 14
-10 30 -10 17 0 30 -4 30 -10 0 -5 7 -10 15 -10 25 0 65 -46 65 -75 0 -14 5
-25 10 -25 6 0 10 -47 10 -120 0 -73 -4 -120 -10 -120 -5 0 -10 -4 -10 -10 0
-5 23 -10 50 -10 l50 0 0 -60 c0 -53 -2 -60 -20 -60 -11 0 -20 -4 -20 -10 0
-6 -30 -10 -70 -10 -40 0 -70 4 -70 10 0 6 -9 10 -20 10 -12 0 -20 7 -20 16 0
8 -7 22 -15 31 -14 13 -18 11 -44 -16 -16 -17 -36 -31 -45 -31 -9 0 -16 -4
-16 -10 0 -6 -35 -10 -85 -10 -84 0 -86 1 -120 35 -32 32 -35 39 -35 95 0 56
3 63 35 95 19 19 41 35 50 35 8 0 15 5 15 10 0 6 9 10 20 10 11 0 20 -4 20
-10 0 -5 5 -10 10 -10 6 0 10 9 10 20 0 16 7 20 30 20 17 0 30 -4 30 -10 0 -5
5 -10 10 -10 6 0 10 9 10 20 0 16 7 20 30 20 17 0 30 -4 30 -10 0 -5 5 -10 10
-10 6 0 10 9 10 20 0 11 5 20 10 20 6 0 10 9 10 20 0 13 -7 20 -20 20 -11 0
-20 5 -20 10 0 6 -16 10 -36 10 -28 0 -43 -8 -74 -40 -31 -32 -46 -40 -74 -40
-20 0 -36 5 -36 10 0 6 -9 10 -20 10 -11 0 -20 5 -20 10 0 6 -9 10 -20 10 -11
0 -20 5 -20 10 0 6 5 10 10 10 6 0 10 7 10 15 0 9 16 31 35 50 19 19 41 35 50
35 8 0 15 5 15 10 0 6 9 10 20 10 11 0 20 5 20 10 0 6 14 10 30 10 17 0 30 5
30 10 0 6 27 10 60 10 33 0 60 -4 60 -10z m1060 -40 c0 -5 -4 -10 -10 -10 -5
0 -10 5 -10 10 0 6 5 10 10 10 6 0 10 -4 10 -10z"/>
<path d="M1670 2260 c0 -5 5 -10 10 -10 6 0 10 5 10 10 0 6 -4 10 -10 10 -5 0
-10 -4 -10 -10z"/>
<path d="M1530 2040 c0 -5 -18 -10 -40 -10 -22 0 -40 -4 -40 -10 0 -5 -9 -10
-20 -10 -15 0 -20 -7 -20 -29 0 -16 -6 -31 -12 -34 -8 -2 -9 -8 -4 -13 5 -5
11 -4 13 4 5 14 43 16 43 2 0 -5 9 -10 20 -10 11 0 20 5 20 10 0 6 7 10 16 10
8 0 22 6 30 14 8 8 14 22 14 30 0 9 5 16 10 16 6 0 10 9 10 20 0 13 -7 20 -20
20 -11 0 -20 -4 -20 -10z"/>
</g>
</svg>
